<?xml version="1.0" standalone="no"?>
<!DOCTYPE svg PUBLIC "-//W3C//DTD SVG 20010904//EN"
 "http://www.w3.org/TR/2001/REC-SVG-20010904/DTD/svg10.dtd">
<svg version="1.0" xmlns="http://www.w3.org/2000/svg"
 width="1280.000000pt" height="640.000000pt" viewBox="0 0 1280.000000 640.000000"
 preserveAspectRatio="xMidYMid meet">
<g transform="translate(0.000000,640.000000) scale(0.100000,-0.100000)"
fill="#000000" stroke="none">
<path d="M5997 5394 c-4 -4 -7 -116 -7 -249 l0 -241 30 -34 c16 -19 29 -41 30
-47 0 -10 -245 -13 -1194 -13 l-1195 0 -160 -199 c-140 -174 -161 -205 -161
-235 0 -29 -4 -37 -22 -41 -13 -3 -238 -25 -501 -50 -540 -52 -510 -52 -726
16 -69 22 -153 43 -186 45 -39 4 -210 -12 -495 -46 -239 -28 -631 -73 -870
-101 -239 -27 -444 -52 -455 -54 -11 -3 -34 -24 -51 -46 -29 -39 -30 -44 -18
-68 11 -21 167 -953 206 -1226 14 -103 24 -123 67 -134 104 -27 12 -56 1576
493 l1468 515 27 -29 c30 -33 46 -36 259 -47 l145 -8 9 -35 c5 -19 12 -39 17
-44 8 -8 92 -21 235 -34 39 -4 76 -11 83 -15 17 -11 15 -66 -5 -149 -15 -63
-15 -77 -2 -141 20 -104 17 -218 -10 -297 -12 -36 -92 -207 -176 -380 -85
-174 -168 -357 -185 -408 -33 -99 -43 -199 -22 -224 10 -12 75 -16 369 -21
347 -6 359 -6 400 14 23 11 56 36 73 55 38 44 40 103 5 188 l-24 59 132 336
132 336 55 32 c30 17 74 45 97 62 l42 30 81 -68 80 -68 158 -6 c86 -4 204 -7
262 -7 l106 0 69 70 69 70 121 0 c66 0 161 5 210 12 141 18 130 21 130 -42 0
-48 3 -55 20 -55 27 0 43 62 55 220 6 71 15 157 20 190 5 33 10 63 10 68 0 12
24 7 48 -11 17 -13 37 -70 91 -257 76 -263 107 -346 209 -558 177 -367 386
-670 667 -965 157 -165 288 -263 617 -462 131 -79 139 -82 167 -70 73 30 134
119 307 448 69 130 136 251 149 269 14 17 25 35 25 40 0 4 -109 87 -242 183
-247 179 -386 300 -488 425 -150 184 -294 419 -468 760 -56 109 -101 253 -109
343 -7 80 -1 92 45 92 21 0 22 3 22 99 0 55 3 102 8 104 4 3 33 -10 65 -29 32
-19 62 -34 67 -34 5 0 25 -7 43 -16 33 -16 38 -15 128 14 52 16 147 48 211 71
64 22 148 45 185 51 334 48 487 60 793 60 481 0 795 36 876 101 24 19 48 29
70 29 26 0 39 7 60 35 l26 35 327 0 c179 0 370 -3 423 -7 l97 -6 -6 -43 -6
-44 242 0 241 0 0 28 c0 15 5 33 12 40 13 13 222 15 423 3 l109 -6 9 -37 9
-38 76 0 c72 0 78 2 110 33 l33 32 27 -33 c26 -31 30 -32 99 -32 l72 0 3 43 3
42 240 1 240 1 22 44 c12 24 28 65 35 91 11 42 10 54 -7 100 -10 29 -27 68
-38 86 l-19 32 -238 0 c-208 0 -239 2 -244 16 -3 9 -6 123 -6 253 0 131 -3
259 -6 284 l-7 46 -30 -16 c-26 -13 -50 -14 -134 -9 l-103 7 0 -122 0 -121
-77 -179 -77 -179 -256 2 -255 3 -3 23 c-3 20 -9 22 -66 22 -156 0 -283 89
-366 256 l-31 64 -152 0 c-84 0 -277 3 -431 7 -256 6 -279 8 -283 24 -4 16
-13 17 -67 13 -48 -5 -71 -2 -108 14 -84 37 -581 62 -1256 62 -210 1 -389 3
-398 7 -9 3 -20 16 -25 30 -12 31 -54 46 -109 39 -25 -4 -124 -1 -221 6 -126
8 -196 9 -245 1 -57 -8 -77 -7 -111 6 -39 14 -48 14 -107 -2 -35 -9 -93 -18
-128 -18 -34 -1 -76 -4 -92 -8 l-30 -6 31 -26 c20 -17 49 -29 80 -33 50 -6 93
-29 93 -48 0 -7 -27 -9 -84 -6 -75 5 -87 3 -102 -13 -16 -18 -36 -19 -330 -19
-201 0 -315 4 -319 10 -4 6 2 25 13 43 18 29 20 55 23 282 l4 250 -236 3
c-129 1 -238 -1 -242 -4z m-834 -2006 c10 -5 16 -16 13 -26 -2 -9 -7 -32 -11
-49 -9 -46 -30 -42 -92 17 -69 65 -64 85 16 75 31 -4 64 -11 74 -17z m381 -30
c22 -84 53 -111 105 -92 39 15 51 2 51 -56 1 -25 7 -81 15 -125 8 -44 15 -83
15 -87 0 -4 -17 -23 -37 -42 l-38 -36 -160 1 c-88 0 -199 4 -247 7 l-88 7 -80
80 -80 80 16 108 c9 59 21 107 26 107 5 0 30 -20 56 -44 26 -24 67 -56 92 -71
25 -16 71 -50 103 -77 61 -50 104 -61 148 -38 32 18 22 36 -34 64 -29 14 -64
37 -77 51 -23 25 -72 153 -63 168 2 4 65 7 139 7 99 0 136 -3 138 -12z"/>
</g>
</svg>
